<svg id="davies-logo" xmlns="http://www.w3.org/2000/svg" viewBox="0 0 500 500"><g id="logo"><polyline id="outline" points="370 227.5 370 135.6 130 135.6 130 364.4 370 364.4 370 333.1" fill="none" stroke="#fff" stroke-miterlimit="10" stroke-width="13"/><g id="davies"><path d="M192.9,265.8V252.4c0-2.2.3-2.4,2.4-2.4h8a32.5,32.5,0,0,1,4.4.3,13.9,13.9,0,0,1,8.5,5,14,14,0,0,1,2.2,3.2c2.2,4.2,2.1,8.7.9,13.1a14.1,14.1,0,0,1-5,6.8,17,17,0,0,1-5.1,2.8,12.8,12.8,0,0,1-2.7.5c-3.7.1-7.4,0-11,0s-2.5-.2-2.5-2.5V265.8Zm8.6-.1h0v7.1c0,.7.2,1.3,1,1.4a8.6,8.6,0,0,0,6.2-1.8,6.7,6.7,0,0,0,2.6-5.9,12.4,12.4,0,0,0-1-5c-1.4-2.9-4.1-4.1-7.3-4.2-1.4,0-1.7.2-1.7,1.6s.2,4.5.2,6.8Z" fill="#83c358"/><path d="M249.3,281.5h-3a1.3,1.3,0,0,1-1.5-1.1c-.3-1-.8-1.8-1.1-2.8a2.3,2.3,0,0,0-2.4-1.6h-7a2.9,2.9,0,0,0-2.5,2.2,15.8,15.8,0,0,1-1,2.4,1.9,1.9,0,0,1-1.7,1h-5.4c-1.4,0-1.8-.6-1.3-1.9l3.8-10,1.6-4.6c.6-1.7,1.4-3.4,1.9-5.1l1.7-4.8,1.5-3.9a2.1,2.1,0,0,1,2.2-1.4h5.8a1.8,1.8,0,0,1,1.7,1c.6,1.5,1.4,3.1,1.9,4.7l3,9c1,3,2,5,3,7.5a24.9,24.9,0,0,1,1.4,4.2l1,2.6a2.7,2.7,0,0,1,.3,1.2c.2,1.2-.2,1.5-1.4,1.6ZM240.6,269c-.8-2.4-1.5-4.7-2.2-7H238a15.1,15.1,0,0,0-1.1,2.2c-.3.7-.8,2.2-1.2,3.4l-.2,1a.9.9,0,0,0,.9,1.1,16.1,16.1,0,0,0,3.1,0l1.1-.7Z" fill="#83c358"/><path d="M337.4,258.2a7.7,7.7,0,0,0-5.3-1.5,4,4,0,0,0-2.1.9,2,2,0,0,0,0,2.7l.4.3a29.2,29.2,0,0,0,3.8,1.4,42.5,42.5,0,0,1,4.9,2.1c2.2,1.1,2.9,3.2,3.3,5.4a11.9,11.9,0,0,1-1.2,7.4,8.3,8.3,0,0,1-2.6,3,13.8,13.8,0,0,1-10.2,2.3,15,15,0,0,1-4.2-.9,14.1,14.1,0,0,1-3.7-1.8c-1.1-.6-1.3-1.4-.6-2.6a46.4,46.4,0,0,1,2.5-4.2c.1-.2.2-.2.6-.5l2.3,1a36.1,36.1,0,0,0,4.2,1.6,4.1,4.1,0,0,0,3.5-1c1.3-1,1.2-2.4-.2-3.3a9.1,9.1,0,0,0-2.6-1.3c-2-.8-4.1-1.4-6.1-2.3a5.7,5.7,0,0,1-3-3.1,10.7,10.7,0,0,1,.2-8.6,9.9,9.9,0,0,1,7.8-6,17.1,17.1,0,0,1,9.5,1.3h.2c2.4,1.1,2.6,1.9,1.2,4.3l-.9,1.7C338.8,257.8,338.6,257.9,337.4,258.2Z" fill="#83c358"/><path d="M264.8,266.9a1.5,1.5,0,0,0,1.8-1h0c1.5-3.9,3-7.8,4.6-11.8l1.5-3.4a1.6,1.6,0,0,1,1.5-.9H280c1,0,1.4.4,1.2,1.4a26.9,26.9,0,0,1-1.6,4.5l-3.1,7.5-1.4,3.4L269.7,279h0c-.6,2.2-.6,2.5-3.7,2.4a13.1,13.1,0,0,1-2.8-.1,2,2,0,0,1-1.2-.8,49.9,49.9,0,0,1-2.3-5.3l-4.6-10.9c-.6-1.4-1-2.8-1.6-4.2l-1.9-4.5a27.4,27.4,0,0,1-1.5-4c-.5-1.4.1-2.1,1.5-2.1h5.3a1.7,1.7,0,0,1,1.8,1.1l2.2,5.3c1.1,2.7,2.2,5.4,3.2,8.2A12.8,12.8,0,0,0,264.8,266.9Z" fill="#83c358"/><path d="M297.8,265.8V252.7a9.7,9.7,0,0,1,.1-1.7,1.2,1.2,0,0,1,1.3-1.2h14.9a1.6,1.6,0,0,1,1.7,1.3h0c.1,1.4.1,2.8.1,4.2A1.7,1.7,0,0,1,314,257h-5.7c-1.5,0-1.9.4-2,1.9-.2,3,0,3.1,3,3.1h4.4c.9,0,1.4.4,1.4,1.3V268a1.2,1.2,0,0,1-1.1,1.3h-5.7c-1.4,0-1.9.4-1.9,1.9s.1,2.9,2.7,2.9H314c1.4,0,1.9.5,1.9,1.8a24.1,24.1,0,0,1,0,3.8,1.6,1.6,0,0,1-1.8,1.7H299.2a1.2,1.2,0,0,1-1.4-1V265.8Z" fill="#83c358"/><path d="M292.6,265.8V279a5.7,5.7,0,0,1-.1,1.3,1.3,1.3,0,0,1-1.4,1.2h-5.4c-1.3,0-1.7-.5-1.8-1.7s-.1-.6-.1-1V253.4a12.1,12.1,0,0,1,.1-1.9c.2-1,.6-1.6,1.7-1.6H291c.5,0,1,.6,1.3,1a3.2,3.2,0,0,1,.2,1.7c.1,4.4.1,8.8.1,13.2Z" fill="#83c358"/></g><g id="group"><path d="M271,287.3c7-.1,12.1,2.4,15.8,7.2a17.7,17.7,0,0,1,3.8,13.8,17.4,17.4,0,0,1-2.9,7.2,19.3,19.3,0,0,1-6.6,6.1,18.7,18.7,0,0,1-22.3-3.3,18.2,18.2,0,0,1-.1-25.5C262.4,289.3,266.5,287.3,271,287.3Zm1,34a16,16,0,0,0,15.9-15.7A15.9,15.9,0,1,0,272,321.3Z" fill="#fff"/><path d="M226.1,295.6c-.5.4-.9,1-1.4,1.2s-1.2-.4-1.6-1a17.2,17.2,0,0,0-6-4.7,15,15,0,0,0-5-1.4,13.1,13.1,0,0,0-8.8,2.2,17.3,17.3,0,0,0-4.6,3.9c-2.8,3.5-4.3,7.5-3.4,12.2a15.1,15.1,0,0,0,3.8,7.8,16.2,16.2,0,0,0,6.4,4.5,14.9,14.9,0,0,0,8.1.7,12.3,12.3,0,0,0,3.7-1.2,37.9,37.9,0,0,0,3.4-2,11,11,0,0,0,4.6-7.7,1.5,1.5,0,0,0-1.2-1.7h-8.8a3.9,3.9,0,0,1-1.5-.2c-.3-.1-.8-.6-.8-.8a1.2,1.2,0,0,1,.7-1.1,1.7,1.7,0,0,1,1.2-.2h11.4c1.4,0,1.9.6,1.9,1.8-.1,4.8-1.6,9-5.5,11.9a18.6,18.6,0,0,1-26-2.9,17.6,17.6,0,0,1-4.1-12.2,20.9,20.9,0,0,1,1.5-6.2,18,18,0,0,1,5-6.9,18.8,18.8,0,0,1,5.8-3.4,22.1,22.1,0,0,1,8.5-1,16.7,16.7,0,0,1,10.1,4.5C224.4,293,225.3,294.2,226.1,295.6Z" fill="#fff"/><path d="M250.1,323c-1.2.6-2,.5-2.7-.4l-2.3-3.1-6.7-9.8-.9-1.4a1.7,1.7,0,0,0-1.8-1c-.1.6-.1,1.2-.2,1.8v12.1a8.7,8.7,0,0,1-.5,2.2c-1.5,0-2-.3-2.1-1.5V290.4c0-2.5.3-2.7,2.8-2.8a21.5,21.5,0,0,1,8.2,1l1.6.8c2.9,2.2,3.8,5.3,3.7,8.8a8.4,8.4,0,0,1-3.9,7l-3.8,1.6-1.4.6c.5.9,1,1.8,1.6,2.7l5.3,7.4,2.6,3.8A10.9,10.9,0,0,1,250.1,323Zm-14.3-32.5a7.7,7.7,0,0,0-.2,1.5v10.3c0,1.4.4,1.8,1.8,1.8a15,15,0,0,0,5.9-1,5.2,5.2,0,0,0,1.7-1.3,6.7,6.7,0,0,0,1.7-4.9,6.4,6.4,0,0,0-2.8-5.5c-2-1.3-4.5-1.4-6.9-1.4Z" fill="#fff"/><path d="M319.6,288a13.8,13.8,0,0,1,.3,2v21.9a11.3,11.3,0,0,1-1,5.4,10.9,10.9,0,0,1-6.2,5.7,14.4,14.4,0,0,1-7.4.8c-4.2-.8-7.5-2.8-9.1-6.9a15,15,0,0,1-.7-5.1c-.1-7.2,0-14.4,0-21.6a2.8,2.8,0,0,1,.1-.9c.2-1.4.6-1.8,2.4-1.2a6.9,6.9,0,0,1,.3,2v20.3c0,1.3.1,2.6.2,3.9.3,3,2.1,4.7,4.6,6a9.5,9.5,0,0,0,6.2.9c2.6-.4,5.1-1.4,6.5-3.8a10.7,10.7,0,0,0,1.3-5.3c.2-5.7.1-11.4.2-17v-5.8C317.3,287.8,317.8,287.5,319.6,288Z" fill="#fff"/><path d="M327.4,323.5a13.9,13.9,0,0,1-.6-1.9V289.8c0-1.8.4-2.2,2.2-2.1a37.5,37.5,0,0,1,5.8.2,18.8,18.8,0,0,1,4.8,1.2,9.6,9.6,0,0,1,2.6,2.3,10.1,10.1,0,0,1-.2,12.3c-2.7,3.2-4,2.7-6.4,3.1a35.4,35.4,0,0,1-4.6.2c-1,0-1.4.4-1.4,1.3s-.1,1.1-.1,1.7c0,3.9,0,7.8.1,11.8C329.4,322.9,329,323.4,327.4,323.5Zm5.4-19.6h1.4c4.2-.1,7.4-2.8,7.2-7.4s-2.7-5.7-5.8-6.2a35.4,35.4,0,0,0-4.6-.2,1.2,1.2,0,0,0-1.4.9v.3c-.1,3.7-.1,7.4-.1,11,0,1.1.6,1.5,1.7,1.5h1.6Z" fill="#fff"/></g></g></svg>