<?xml version="1.0" encoding="UTF-8"?><svg xmlns="http://www.w3.org/2000/svg" viewBox="0 0 500 500"><g id="a"/><g id="b"><polygon points="351.9 232.3 360.5 232.3 360.5 144.3 140.3 144.3 140.3 356.3 360.1 356.3 360.1 324 351.6 324 351.6 347.6 148.7 347.6 148.7 152.8 351.9 152.8 351.9 232.3" fill="#fff"/></g><g id="c"><g id="d"><path d="M235,300.6c0,2.3-.2,4.2-.7,5.8-.5,1.6-1.3,3-2.5,4.4-1.4,1.6-3.2,2.8-5.2,3.6-2,.9-4.2,1.3-6.3,1.3s-4.1-.4-6-1.2c-1.9-.8-3.6-2-5-3.4-1.5-1.4-2.6-3.1-3.4-5-.8-1.9-1.2-3.8-1.2-5.9s.4-4.2,1.2-6.1c.8-1.9,2-3.6,3.4-5,1.5-1.5,3.2-2.6,5.1-3.4,1.9-.8,4-1.2,6.1-1.2s5.2,.6,7.4,1.9c2.2,1.2,4.2,3,5.8,5.2l-1.6,1.3c-1.4-2.1-3.1-3.7-5.1-4.8-2-1.1-4.2-1.7-6.7-1.7s-3.5,.4-5.2,1.1c-1.7,.7-3.2,1.8-4.5,3-1.3,1.3-2.3,2.8-3,4.4-.7,1.7-1.1,3.4-1.1,5.2s.4,3.6,1.1,5.3c.7,1.7,1.7,3.1,3,4.4,1.3,1.3,2.8,2.3,4.4,3,1.7,.7,3.5,1.1,5.3,1.1s3.2-.3,4.7-.9c1.5-.6,3-1.4,4.3-2.5,1.3-1.1,2.2-2.3,2.8-3.6,.6-1.3,.9-2.8,.9-4.5h-10.9v-1.8h12.8Z" fill="#fff"/><path d="M254.7,315.3h-2.2l-9.9-14.4h-1v14.4h-1.9v-30.4h3.8c1.6,0,2.9,0,4,.3,1,.2,2,.6,2.9,1.3,1.1,.7,1.8,1.7,2.3,2.8,.5,1.1,.7,2.4,.7,3.7,0,2.6-.8,4.5-2.4,5.9-1.6,1.4-3.7,2.1-6.3,2.1l10,14.4Zm-10.7-16.2c1.2,0,2.2,0,3-.3,.8-.2,1.6-.6,2.3-1.2,.7-.6,1.2-1.3,1.6-2.1,.4-.9,.5-1.7,.5-2.7s-.3-2.3-.8-3.3c-.6-1-1.4-1.7-2.4-2.2-.6-.3-1.3-.5-2.1-.6-.8,0-1.9-.1-3.3-.1h-1.3v12.4h2.5Z" fill="#fff"/><path d="M279.4,285.7c1.9,.8,3.6,1.9,5.1,3.4,1.5,1.5,2.6,3.1,3.4,5,.8,1.9,1.2,3.9,1.2,6s-.4,4.1-1.2,6c-.8,1.9-2,3.6-3.4,5-1.5,1.5-3.2,2.6-5.1,3.4-1.9,.8-3.9,1.2-6,1.2s-4.1-.4-6-1.2c-1.9-.8-3.6-1.9-5.1-3.4-1.5-1.5-2.6-3.1-3.5-5-.8-1.9-1.3-3.9-1.3-6s.4-4.1,1.2-6c.8-1.9,2-3.6,3.4-5,1.5-1.5,3.2-2.6,5.1-3.4,1.9-.8,3.9-1.2,6-1.2s4.1,.4,6,1.2m-11.3,1.7c-1.7,.7-3.2,1.7-4.4,3-1.3,1.3-2.3,2.8-3,4.4-.7,1.7-1.1,3.4-1.1,5.3s.4,3.6,1.1,5.3c.7,1.7,1.7,3.1,3,4.4,1.3,1.3,2.8,2.3,4.4,3,1.7,.7,3.5,1.1,5.3,1.1s3.6-.4,5.3-1.1c1.7-.7,3.2-1.7,4.4-3,1.3-1.3,2.3-2.8,3-4.4,.7-1.7,1.1-3.4,1.1-5.3s-.4-3.6-1.1-5.3c-.7-1.7-1.7-3.2-3-4.5-1.3-1.3-2.8-2.3-4.5-3-1.7-.7-3.4-1.1-5.3-1.1s-3.6,.4-5.3,1.1" fill="#fff"/><path d="M312.3,284.8h1.9v19c0,2-.1,3.6-.3,4.8-.2,1.2-.8,2.4-1.7,3.5-1,1.1-2.2,2-3.7,2.6-1.5,.6-3,.9-4.6,.9s-3.1-.3-4.6-.9c-1.5-.6-2.7-1.5-3.7-2.6-.9-1.1-1.5-2.3-1.7-3.5-.2-1.2-.3-2.8-.3-4.8v-19h1.9v18.4c0,1.9,0,3.4,.3,4.6,.2,1.2,.6,2.2,1.3,3.1,.7,.9,1.7,1.6,3,2.2,1.3,.5,2.6,.8,3.8,.8s2.5-.3,3.8-.8c1.3-.5,2.3-1.2,3-2.2,.7-.9,1.1-1.9,1.3-3.1,.2-1.2,.3-2.7,.3-4.6v-18.4Z" fill="#fff"/><path d="M322.4,315.3h-1.9v-30.4h5.4c1.5,0,2.7,.1,3.7,.3,1,.2,2,.7,2.8,1.4,.9,.8,1.6,1.7,2.1,2.8,.5,1.1,.7,2.2,.7,3.4s-.2,2.2-.7,3.4c-.4,1.1-1.1,2-1.9,2.7-.9,.7-1.9,1.2-3,1.5-1.1,.3-2.4,.4-3.8,.4h-3.4v14.5Zm3.5-16.3c1.1,0,2.1-.1,3-.3,.8-.2,1.6-.7,2.4-1.3,1.3-1.2,2-2.7,2-4.6s-.2-1.9-.6-2.8c-.4-.9-1-1.6-1.7-2.1-.7-.5-1.4-.8-2.3-1-.8-.1-1.9-.2-3.1-.2h-3.2v12.4h3.5Z" fill="#fff"/></g></g><g id="e"><g id="f"><path d="M204.6,250.7h9.9c3.8,0,7,1.4,9.6,3.9,2.6,2.6,3.9,5.8,4,9.8,0,4-1.4,7.2-4,9.7-2.6,2.6-5.8,4-9.6,4h-9.9v-27.5Zm7.1,21.5h1.6c2.1,0,3.9-.6,5.4-1.9,1.4-1.3,2.2-3.2,2.2-5.8,0-2.5-.7-4.4-2.1-5.7-1.4-1.3-3.2-1.9-5.4-2h-1.6v15.4Z" fill="#83c258"/><path d="M238.9,273.4l-1.8,4.8h-7.3l10.2-27.5h7.6l10,27.5h-7.4l-1.7-4.8h-9.5Zm4.8-14.2h0l-2.9,8.8h5.8l-2.8-8.8Z" fill="#83c258"/><polygon points="267.8 267.4 274.2 250.7 281.7 250.7 270.4 278.2 265 278.2 253.8 250.7 261.3 250.7 267.8 267.4" fill="#83c258"/><rect x="284.2" y="250.7" width="7.1" height="27.5" fill="#83c258"/><polygon points="303.2 256.7 303.2 261.3 311 261.3 311 267.4 303.2 267.4 303.2 272.1 311.4 272.1 311.4 278.2 296.1 278.2 296.1 250.7 311.4 250.7 311.4 256.7 303.2 256.7" fill="#83c258"/><path d="M331.2,258c-1.4-1.2-3-1.8-4.8-1.8-.7,0-1.4,.2-2,.5-.7,.4-1,1-1.1,1.7,0,.8,.4,1.3,1.2,1.7,.7,.4,1.4,.7,2.1,.9l1.9,.5c1.9,.5,3.5,1.3,4.7,2.4,1.2,1.2,1.8,2.8,1.9,5,0,1.3-.2,2.7-.6,4-.4,1.3-1.1,2.4-2.2,3.4-2.2,1.7-4.8,2.6-7.7,2.6-3.5,0-6.7-1.1-9.5-3.1l3.1-5.7c.9,.8,1.9,1.4,2.9,1.9,1.1,.6,2.2,.9,3.4,.9s1.7-.2,2.4-.7c.7-.4,1.1-1.1,1.1-2.1,0-.5-.2-.9-.5-1.3-.3-.4-.7-.7-1.2-.9-1.1-.4-2-.8-2.9-.9-1.1-.3-2-.7-2.9-1-.9-.4-1.7-.8-2.3-1.3-.6-.5-1.1-1.2-1.4-2.1-.4-.9-.6-1.9-.6-3.2,0-2.8,.9-5,2.7-6.6,1.7-1.6,4-2.5,6.7-2.5,3,0,5.8,.8,8.5,2.3l-2.8,5.5Z" fill="#83c258"/></g></g></svg>